<svg xmlns="http://www.w3.org/2000/svg" viewBox="0 0 1920 1080" width="1920" height="1080" preserveAspectRatio="xMidYMid slice">
<defs><linearGradient id="trail" x1="0" y1="0" x2="0" y2="1">
    <stop offset="0" stop-color="#fdf6d8" stop-opacity="0.28"/>
    <stop offset="1" stop-color="#fdf6d8" stop-opacity="0.04"/>
  </linearGradient></defs>
<path d="M0 756 Q 960 738 1920 756 L1920 1080 L0 1080 Z" fill="#04080f"/>
<path d="M960 746 L307.2 1080 L1612.8 1080 Z" fill="url(#trail)"/>
<path d="M960 750 L576 1080 L844.8 1080 Z" fill="#fdf6d8" opacity="0.14"/>
<path d="M960 750 L1344 1080 L1075.2 1080 Z" fill="#fdf6d8" opacity="0.14"/>
<circle cx="960" cy="750" r="90" fill="#fdf6d8" opacity="0.07"/>
<path d="M1290.7 793.1 q -6.3 -16.2 -10.709999999999999 -27" stroke="#070d18" stroke-width="3" fill="none" opacity="0.8"/>
<path d="M800.1 774.9 q 6 -8.1 10.2 -13.5" stroke="#070d18" stroke-width="3" fill="none" opacity="0.8"/>
<path d="M1559.9 786.7 q 3.2 -11.04 5.44 -18.4" stroke="#070d18" stroke-width="3" fill="none" opacity="0.8"/>
<path d="M1099.6 777.7 q -6.3 -15.839999999999998 -10.709999999999999 -26.4" stroke="#070d18" stroke-width="3" fill="none" opacity="0.8"/>
<path d="M1370.8 790.3 q -3 -17.34 -5.1 -28.9" stroke="#070d18" stroke-width="3" fill="none" opacity="0.8"/>
<path d="M1689 793 q 4.3 -16.439999999999998 7.31 -27.4" stroke="#070d18" stroke-width="3" fill="none" opacity="0.8"/>
<path d="M1837.4 786.4 q -6.5 -14.819999999999999 -11.049999999999999 -24.7" stroke="#070d18" stroke-width="3" fill="none" opacity="0.8"/>
<path d="M332.1 768.7 q -3.1 -15.66 -5.27 -26.1" stroke="#070d18" stroke-width="3" fill="none" opacity="0.8"/>
<path d="M532.8 787.1 q 6.8 -15 11.559999999999999 -25" stroke="#070d18" stroke-width="3" fill="none" opacity="0.8"/>
<path d="M1571.6 793 q -2.4 -17.82 -4.08 -29.7" stroke="#070d18" stroke-width="3" fill="none" opacity="0.8"/>
<path d="M736.6 775.9 q 4.7 -8.04 7.99 -13.4" stroke="#070d18" stroke-width="3" fill="none" opacity="0.8"/>
<path d="M15.4 777.1 q -0.7 -7.74 -1.19 -12.9" stroke="#070d18" stroke-width="3" fill="none" opacity="0.8"/>
<path d="M1703.2 798.2 q 4.4 -15.06 7.48 -25.1" stroke="#070d18" stroke-width="3" fill="none" opacity="0.8"/>
<path d="M1033.2 776.3 q 6.4 -9 10.88 -15" stroke="#070d18" stroke-width="3" fill="none" opacity="0.8"/>
<path d="M1392 797.8 q -3.2 -16.98 -5.44 -28.3" stroke="#070d18" stroke-width="3" fill="none" opacity="0.8"/>
<path d="M1535.9 777.2 q 4.1 -17.639999999999997 6.969999999999999 -29.4" stroke="#070d18" stroke-width="3" fill="none" opacity="0.8"/>
<path d="M1768.6 779.6 q 5.1 -11.639999999999999 8.67 -19.4" stroke="#070d18" stroke-width="3" fill="none" opacity="0.8"/>
<path d="M430.2 790.9 q 4.3 -11.76 7.31 -19.6" stroke="#070d18" stroke-width="3" fill="none" opacity="0.8"/>
<path d="M209.5 796.5 q 4.7 -9.12 7.99 -15.2" stroke="#070d18" stroke-width="3" fill="none" opacity="0.8"/>
<path d="M1023.7 796.8 q -0.5 -12.96 -0.85 -21.6" stroke="#070d18" stroke-width="3" fill="none" opacity="0.8"/>
<path d="M924.3 774.3 q 1.4 -8.64 2.38 -14.4" stroke="#070d18" stroke-width="3" fill="none" opacity="0.8"/>
<path d="M891.7 781.2 q 0.9 -13.2 1.53 -22" stroke="#070d18" stroke-width="3" fill="none" opacity="0.8"/>
<path d="M350.1 781.9 q -0.5 -17.7 -0.85 -29.5" stroke="#070d18" stroke-width="3" fill="none" opacity="0.8"/>
<path d="M871.3 791.8 q -5.4 -14.219999999999999 -9.18 -23.7" stroke="#070d18" stroke-width="3" fill="none" opacity="0.8"/>
<path d="M628.1 768.7 q -1.9 -18.18 -3.23 -30.3" stroke="#070d18" stroke-width="3" fill="none" opacity="0.8"/>
<path d="M56.6 774.4 q -0.9 -14.52 -1.53 -24.2" stroke="#070d18" stroke-width="3" fill="none" opacity="0.8"/>
<path d="M780.9 766 q 2.8 -8.04 4.76 -13.4" stroke="#070d18" stroke-width="3" fill="none" opacity="0.8"/>
<path d="M939.2 783.2 q -1.6 -12.66 -2.72 -21.1" stroke="#070d18" stroke-width="3" fill="none" opacity="0.8"/>
<path d="M1809.3 784.9 q -2.1 -12.839999999999998 -3.57 -21.4" stroke="#070d18" stroke-width="3" fill="none" opacity="0.8"/>
<path d="M1790.2 787.5 q 2.4 -7.26 4.08 -12.1" stroke="#070d18" stroke-width="3" fill="none" opacity="0.8"/>
<path d="M396.1 793.2 q 2.9 -13.139999999999999 4.93 -21.9" stroke="#070d18" stroke-width="3" fill="none" opacity="0.8"/>
<path d="M779 771.9 q 1.2 -9.42 2.04 -15.7" stroke="#070d18" stroke-width="3" fill="none" opacity="0.8"/>
<path d="M109.2 762.8 q 1.6 -15.18 2.72 -25.3" stroke="#070d18" stroke-width="3" fill="none" opacity="0.8"/>
<path d="M430.5 794.8 q -0.5 -16.5 -0.85 -27.5" stroke="#070d18" stroke-width="3" fill="none" opacity="0.8"/>
<path d="M27.2 762.9 q -3.4 -10.26 -5.779999999999999 -17.1" stroke="#070d18" stroke-width="3" fill="none" opacity="0.8"/>
<path d="M1141.3 769.4 q 6.8 -17.939999999999998 11.559999999999999 -29.9" stroke="#070d18" stroke-width="3" fill="none" opacity="0.8"/>
<path d="M792.4 774.8 q 6.7 -13.02 11.39 -21.7" stroke="#070d18" stroke-width="3" fill="none" opacity="0.8"/>
<path d="M304 782.8 q 1.4 -11.819999999999999 2.38 -19.7" stroke="#070d18" stroke-width="3" fill="none" opacity="0.8"/>
<path d="M1404.5 789.9 q -5.8 -10.98 -9.86 -18.3" stroke="#070d18" stroke-width="3" fill="none" opacity="0.8"/>
<path d="M969.7 767.1 q 4.6 -13.02 7.819999999999999 -21.7" stroke="#070d18" stroke-width="3" fill="none" opacity="0.8"/>
<path d="M1253.7 798.6 q 3.3 -8.4 5.609999999999999 -14" stroke="#070d18" stroke-width="3" fill="none" opacity="0.8"/>
<path d="M538.1 765.8 q -4.2 -7.619999999999999 -7.14 -12.7" stroke="#070d18" stroke-width="3" fill="none" opacity="0.8"/>
<path d="M1546 768.1 q -0.6 -14.819999999999999 -1.02 -24.7" stroke="#070d18" stroke-width="3" fill="none" opacity="0.8"/>
<path d="M1596.7 780.9 q -2.2 -10.98 -3.74 -18.3" stroke="#070d18" stroke-width="3" fill="none" opacity="0.8"/>
<path d="M396.1 774 q 0.6 -11.339999999999998 1.02 -18.9" stroke="#070d18" stroke-width="3" fill="none" opacity="0.8"/>
<path d="M756 765.1 q -0.3 -8.64 -0.51 -14.4" stroke="#070d18" stroke-width="3" fill="none" opacity="0.8"/>
<path d="M1282.4 772.2 q 3.3 -13.62 5.609999999999999 -22.7" stroke="#070d18" stroke-width="3" fill="none" opacity="0.8"/>
<path d="M934.9 767.1 q -3.7 -16.26 -6.29 -27.1" stroke="#070d18" stroke-width="3" fill="none" opacity="0.8"/>
<path d="M1393.2 771 q -2.9 -10.62 -4.93 -17.7" stroke="#070d18" stroke-width="3" fill="none" opacity="0.8"/>
<path d="M821 785 q 4.9 -9.299999999999999 8.33 -15.5" stroke="#070d18" stroke-width="3" fill="none" opacity="0.8"/>
<path d="M687.5 762.6 q -2.6 -18.9 -4.42 -31.5" stroke="#070d18" stroke-width="3" fill="none" opacity="0.8"/>
<path d="M508.8 772.4 q 1.4 -15.419999999999998 2.38 -25.7" stroke="#070d18" stroke-width="3" fill="none" opacity="0.8"/>
<path d="M1206 770 q 1.1 -17.639999999999997 1.87 -29.4" stroke="#070d18" stroke-width="3" fill="none" opacity="0.8"/>
<path d="M358.4 778.9 q -3.6 -9.66 -6.12 -16.1" stroke="#070d18" stroke-width="3" fill="none" opacity="0.8"/>
<path d="M1895.8 775.4 q -5.8 -8.819999999999999 -9.86 -14.7" stroke="#070d18" stroke-width="3" fill="none" opacity="0.8"/>
<path d="M29 781.6 q 2.7 -13.68 4.59 -22.8" stroke="#070d18" stroke-width="3" fill="none" opacity="0.8"/>
<path d="M1814.2 796.1 q 1.9 -11.58 3.23 -19.3" stroke="#070d18" stroke-width="3" fill="none" opacity="0.8"/>
<path d="M1513.8 786.9 q 0.4 -16.26 0.68 -27.1" stroke="#070d18" stroke-width="3" fill="none" opacity="0.8"/>
<path d="M73.9 762.5 q 3.7 -15.419999999999998 6.29 -25.7" stroke="#070d18" stroke-width="3" fill="none" opacity="0.8"/>
<path d="M9.6 769.1 q 6.4 -8.4 10.88 -14" stroke="#070d18" stroke-width="3" fill="none" opacity="0.8"/>
<path d="M1076.1 796.7 q -2.9 -18.18 -4.93 -30.3" stroke="#070d18" stroke-width="3" fill="none" opacity="0.8"/>
<path d="M71.3 782.8 q -1.6 -8.28 -2.72 -13.8" stroke="#070d18" stroke-width="3" fill="none" opacity="0.8"/>
<path d="M748.1 785.9 q -6.4 -7.619999999999999 -10.88 -12.7" stroke="#070d18" stroke-width="3" fill="none" opacity="0.8"/>
<path d="M1726.3 788.9 q -4.6 -9.42 -7.819999999999999 -15.7" stroke="#070d18" stroke-width="3" fill="none" opacity="0.8"/>
<path d="M1665.3 781.5 q -3.9 -18.66 -6.63 -31.1" stroke="#070d18" stroke-width="3" fill="none" opacity="0.8"/>
<path d="M911.9 772.6 q -4.9 -11.219999999999999 -8.33 -18.7" stroke="#070d18" stroke-width="3" fill="none" opacity="0.8"/>
<path d="M1345.6 774 q 6.6 -15.6 11.219999999999999 -26" stroke="#070d18" stroke-width="3" fill="none" opacity="0.8"/>
<path d="M84.7 798.3 q -3.6 -7.74 -6.12 -12.9" stroke="#070d18" stroke-width="3" fill="none" opacity="0.8"/>
<path d="M1293.9 774.4 q 3.1 -11.28 5.27 -18.8" stroke="#070d18" stroke-width="3" fill="none" opacity="0.8"/>
<path d="M1727.4 764.9 q -6.8 -17.88 -11.559999999999999 -29.8" stroke="#070d18" stroke-width="3" fill="none" opacity="0.8"/>
<path d="M1322.7 779.8 q -5.7 -16.56 -9.69 -27.6" stroke="#070d18" stroke-width="3" fill="none" opacity="0.8"/>
<path d="M810.8 789.2 q 0.4 -17.4 0.68 -29" stroke="#070d18" stroke-width="3" fill="none" opacity="0.8"/>
<path d="M724.8 762.6 q 6.1 -9.42 10.37 -15.7" stroke="#070d18" stroke-width="3" fill="none" opacity="0.8"/>
<path d="M757.6 782.7 q -1.6 -15.899999999999999 -2.72 -26.5" stroke="#070d18" stroke-width="3" fill="none" opacity="0.8"/>
<path d="M636.6 772.5 q 0.8 -10.08 1.36 -16.8" stroke="#070d18" stroke-width="3" fill="none" opacity="0.8"/>
<path d="M242.4 794.5 q -2 -9.18 -3.4 -15.3" stroke="#070d18" stroke-width="3" fill="none" opacity="0.8"/>
<path d="M952.8 797.1 q -7 -10.68 -11.9 -17.8" stroke="#070d18" stroke-width="3" fill="none" opacity="0.8"/>
<path d="M442 766.6 q -4.6 -16.86 -7.819999999999999 -28.1" stroke="#070d18" stroke-width="3" fill="none" opacity="0.8"/>
<path d="M274.8 793.1 q -1.8 -13.319999999999999 -3.06 -22.2" stroke="#070d18" stroke-width="3" fill="none" opacity="0.8"/>
<path d="M1261 785.7 q -1.2 -10.26 -2.04 -17.1" stroke="#070d18" stroke-width="3" fill="none" opacity="0.8"/>
<path d="M918.6 790.6 q -0.7 -16.08 -1.19 -26.8" stroke="#070d18" stroke-width="3" fill="none" opacity="0.8"/>
<path d="M961.9 791.8 q -1.6 -13.319999999999999 -2.72 -22.2" stroke="#070d18" stroke-width="3" fill="none" opacity="0.8"/>
<path d="M1166.6 774.3 q 2.6 -7.919999999999999 4.42 -13.2" stroke="#070d18" stroke-width="3" fill="none" opacity="0.8"/>
<path d="M494.1 764.8 q 2.9 -16.26 4.93 -27.1" stroke="#070d18" stroke-width="3" fill="none" opacity="0.8"/>
<path d="M1735.6 773.4 q -3 -8.7 -5.1 -14.5" stroke="#070d18" stroke-width="3" fill="none" opacity="0.8"/>
<path d="M231.5 793.7 q -3.4 -8.94 -5.779999999999999 -14.9" stroke="#070d18" stroke-width="3" fill="none" opacity="0.8"/>
<path d="M1734.4 790.5 q 0.6 -8.52 1.02 -14.2" stroke="#070d18" stroke-width="3" fill="none" opacity="0.8"/>
<path d="M1121.3 779.5 q 3.8 -18.06 6.46 -30.1" stroke="#070d18" stroke-width="3" fill="none" opacity="0.8"/>
<path d="M723 795.2 q 2.9 -10.799999999999999 4.93 -18" stroke="#070d18" stroke-width="3" fill="none" opacity="0.8"/>
<path d="M1163.4 790.1 q -3.9 -16.68 -6.63 -27.8" stroke="#070d18" stroke-width="3" fill="none" opacity="0.8"/>
<path d="M1474.7 771.3 q -4.2 -13.2 -7.14 -22" stroke="#070d18" stroke-width="3" fill="none" opacity="0.8"/>
<path d="M1281.6 764.6 q 0.3 -12.54 0.51 -20.9" stroke="#070d18" stroke-width="3" fill="none" opacity="0.8"/>
<path d="M1317.1 772.6 q -1 -17.52 -1.7 -29.2" stroke="#070d18" stroke-width="3" fill="none" opacity="0.8"/>
<path d="M713.1 787.5 q -5 -10.739999999999998 -8.5 -17.9" stroke="#070d18" stroke-width="3" fill="none" opacity="0.8"/>
<path d="M256.2 763.9 q -5.2 -16.919999999999998 -8.84 -28.2" stroke="#070d18" stroke-width="3" fill="none" opacity="0.8"/>
<path d="M702.3 762.3 q -2.6 -17.58 -4.42 -29.3" stroke="#070d18" stroke-width="3" fill="none" opacity="0.8"/>
<path d="M582.8 790.9 q -3.1 -12.12 -5.27 -20.2" stroke="#070d18" stroke-width="3" fill="none" opacity="0.8"/>
<path d="M1009.4 791.7 q -5.5 -7.199999999999999 -9.35 -12" stroke="#070d18" stroke-width="3" fill="none" opacity="0.8"/>
<path d="M1461.3 786.6 q -3.9 -14.58 -6.63 -24.3" stroke="#070d18" stroke-width="3" fill="none" opacity="0.8"/>
<path d="M874.4 791.8 q 0.1 -8.459999999999999 0.17 -14.1" stroke="#070d18" stroke-width="3" fill="none" opacity="0.8"/>
<path d="M1773.1 784.7 q -5.2 -11.16 -8.84 -18.6" stroke="#070d18" stroke-width="3" fill="none" opacity="0.8"/>
<path d="M1879.5 780.7 q 6.6 -13.44 11.219999999999999 -22.4" stroke="#070d18" stroke-width="3" fill="none" opacity="0.8"/>
<path d="M746 784.5 q -3.9 -18.96 -6.63 -31.6" stroke="#070d18" stroke-width="3" fill="none" opacity="0.8"/>
<path d="M650.5 794.8 q -2.7 -18.18 -4.59 -30.3" stroke="#070d18" stroke-width="3" fill="none" opacity="0.8"/>
<path d="M208.9 791.4 q 6.4 -12 10.88 -20" stroke="#070d18" stroke-width="3" fill="none" opacity="0.8"/>
<path d="M1253 784.9 q -5.9 -12.239999999999998 -10.030000000000001 -20.4" stroke="#070d18" stroke-width="3" fill="none" opacity="0.8"/>
<path d="M293.6 778.3 q -4.1 -12.6 -6.969999999999999 -21" stroke="#070d18" stroke-width="3" fill="none" opacity="0.8"/>
<path d="M385.5 772.7 q -1.5 -15.899999999999999 -2.55 -26.5" stroke="#070d18" stroke-width="3" fill="none" opacity="0.8"/>
<path d="M99.3 770.8 q 4.9 -11.46 8.33 -19.1" stroke="#070d18" stroke-width="3" fill="none" opacity="0.8"/>
<path d="M970.4 774 q 0 -7.919999999999999 0 -13.2" stroke="#070d18" stroke-width="3" fill="none" opacity="0.8"/>
<path d="M1456.3 781.8 q 5.1 -11.46 8.67 -19.1" stroke="#070d18" stroke-width="3" fill="none" opacity="0.8"/>
<path d="M8.1 781 q 5.5 -14.46 9.35 -24.1" stroke="#070d18" stroke-width="3" fill="none" opacity="0.8"/>
<path d="M509.2 770.9 q 1.3 -10.2 2.21 -17" stroke="#070d18" stroke-width="3" fill="none" opacity="0.8"/>
<path d="M1114.4 772.9 q 1.6 -16.68 2.72 -27.8" stroke="#070d18" stroke-width="3" fill="none" opacity="0.8"/>
<path d="M1873.3 764.9 q -1.2 -17.4 -2.04 -29" stroke="#070d18" stroke-width="3" fill="none" opacity="0.8"/>
<path d="M1621 763.5 q 6.2 -15.239999999999998 10.54 -25.4" stroke="#070d18" stroke-width="3" fill="none" opacity="0.8"/>
<path d="M403.6 764.9 q 4.9 -9.9 8.33 -16.5" stroke="#070d18" stroke-width="3" fill="none" opacity="0.8"/>
<path d="M876.7 781.5 q 5.4 -12.6 9.18 -21" stroke="#070d18" stroke-width="3" fill="none" opacity="0.8"/>
<path d="M321.7 791.3 q -1.1 -12 -1.87 -20" stroke="#070d18" stroke-width="3" fill="none" opacity="0.8"/>
<path d="M1786 773.2 q -2.8 -8.1 -4.76 -13.5" stroke="#070d18" stroke-width="3" fill="none" opacity="0.8"/>
<rect x="-20.9" y="1044.4" width="33.6" height="86.3" fill="#070d18"/><path d="M-4.1 397.5 L-82.6 986.9 L74.4 986.9 Z M-4.1 508.9 L-109.7 1033.7 L101.5 1033.7 Z M-4.1 620.3 L-136.8 1080.4 L128.6 1080.4 Z M-4.1 731.8 L-163.9 1127.1 L155.7 1127.1 Z" fill="#8fb4e8" opacity="0.22" transform="translate(3,-3)"/><path d="M-4.1 397.5 L-82.6 986.9 L74.4 986.9 Z M-4.1 508.9 L-109.7 1033.7 L101.5 1033.7 Z M-4.1 620.3 L-136.8 1080.4 L128.6 1080.4 Z M-4.1 731.8 L-163.9 1127.1 L155.7 1127.1 Z" fill="#070d18"/>
<rect x="110" y="1055" width="31.4" height="80.6" fill="#070d18"/><path d="M125.8 450.3 L52.4 1001.2 L199.1 1001.2 Z M125.8 554.4 L27.1 1044.9 L224.5 1044.9 Z M125.8 658.6 L1.7 1088.6 L249.8 1088.6 Z M125.8 762.7 L-23.6 1132.2 L275.1 1132.2 Z" fill="#8fb4e8" opacity="0.22" transform="translate(3,-3)"/><path d="M125.8 450.3 L52.4 1001.2 L199.1 1001.2 Z M125.8 554.4 L27.1 1044.9 L224.5 1044.9 Z M125.8 658.6 L1.7 1088.6 L249.8 1088.6 Z M125.8 762.7 L-23.6 1132.2 L275.1 1132.2 Z" fill="#070d18"/>
<rect x="1880.1" y="1034" width="35.5" height="91.1" fill="#070d18"/><path d="M1897.9 350.5 L1814.9 973.2 L1980.8 973.2 Z M1897.9 468.2 L1786.3 1022.6 L2009.4 1022.6 Z M1897.9 585.9 L1757.7 1072 L2038 1072 Z M1897.9 703.6 L1729 1121.3 L2066.7 1121.3 Z" fill="#8fb4e8" opacity="0.22" transform="translate(3,-3)"/><path d="M1897.9 350.5 L1814.9 973.2 L1980.8 973.2 Z M1897.9 468.2 L1786.3 1022.6 L2009.4 1022.6 Z M1897.9 585.9 L1757.7 1072 L2038 1072 Z M1897.9 703.6 L1729 1121.3 L2066.7 1121.3 Z" fill="#070d18"/>
<rect x="1944.8" y="1065.7" width="28.1" height="72" fill="#070d18"/><path d="M1958.8 526.1 L1893.3 1017.7 L2024.3 1017.7 Z M1958.8 619 L1870.7 1056.7 L2046.9 1056.7 Z M1958.8 712 L1848.1 1095.7 L2069.5 1095.7 Z M1958.8 804.9 L1825.5 1134.7 L2092.1 1134.7 Z" fill="#8fb4e8" opacity="0.22" transform="translate(3,-3)"/><path d="M1958.8 526.1 L1893.3 1017.7 L2024.3 1017.7 Z M1958.8 619 L1870.7 1056.7 L2046.9 1056.7 Z M1958.8 712 L1848.1 1095.7 L2069.5 1095.7 Z M1958.8 804.9 L1825.5 1134.7 L2092.1 1134.7 Z" fill="#070d18"/>
</svg>
