<svg xmlns="http://www.w3.org/2000/svg" viewBox="0 0 400 220" width="400" height="220">
<style>
  .idle { animation: idle 3.2s ease-in-out infinite; transform-origin: 50% 100%; }
  @keyframes idle { 0%,100% { transform: translateY(0) } 50% { transform: translateY(-6px) } }
  @media (prefers-reduced-motion: reduce) { .idle { animation: none } }
  
</style>
<g class="idle">

<!-- крылья: размах во всю ширину, иначе мышь читается мышью обычной -->
<rect x="0" y="60" width="152" height="60" fill="#705d6e"/>
<rect x="8" y="120" width="136" height="20" fill="#534354"/>
<rect x="248" y="60" width="152" height="60" fill="#705d6e"/>
<rect x="256" y="120" width="136" height="20" fill="#534354"/>
<rect x="52" y="60" width="6" height="72" fill="#534354"/>
<rect x="104" y="60" width="6" height="72" fill="#534354"/>
<rect x="290" y="60" width="6" height="72" fill="#534354"/>
<rect x="342" y="60" width="6" height="72" fill="#534354"/>

<!-- уши -->
<rect x="158" y="12" width="30" height="44" fill="#5b4a59"/>
<rect x="212" y="12" width="30" height="44" fill="#5b4a59"/>
<rect x="166" y="22" width="14" height="28" fill="#8a7287"/>
<rect x="220" y="22" width="14" height="28" fill="#8a7287"/>

<!-- тело -->
<rect x="148" y="48" width="104" height="132" fill="#5b4a59"/>
<rect x="192" y="64" width="16" height="108" fill="#443648"/>

<!-- глаза -->
<rect x="164" y="78" width="28" height="28" fill="#ffffff"/>
<rect x="208" y="78" width="28" height="28" fill="#ffffff"/>
<rect x="172" y="86" width="14" height="16" fill="#2b1f2b"/>
<rect x="216" y="86" width="14" height="16" fill="#2b1f2b"/>

<!-- нос и лапки -->
<rect x="188" y="118" width="24" height="16" fill="#c4a0b4"/>
<rect x="162" y="180" width="26" height="24" fill="#443648"/>
<rect x="212" y="180" width="26" height="24" fill="#443648"/>
</g>
</svg>
